<svg xmlns="http://www.w3.org/2000/svg" version="1.1" xmlns:xlink="http://www.w3.org/1999/xlink" xmlns:svgjs="http://svgjs.dev/svgjs" width="971.69" height="576.06"><svg version="1.1" id="SvgjsSvg1165" xmlns="http://www.w3.org/2000/svg" xmlns:xlink="http://www.w3.org/1999/xlink" x="0px" y="0px" viewBox="0 0 971.69 576.06" style="enable-background:new 0 0 971.69 576.06;" xml:space="preserve">
<style type="text/css">
	.st0{fill:#AC4A95;}
	.st1{fill:#FFFFFF;}
</style>
<g>
	<circle class="st0" cx="319.95" cy="288.03" r="241.55"></circle>
	<circle class="st0" cx="720.25" cy="288.03" r="173.04"></circle>
	<g>
		<path class="st1" d="M239,243.16l-38.46,89.74h-25l-38.33-89.74h27.43L189,301.62l24.87-58.46H239z"></path>
		<path class="st1" d="M244.25,243.16h25.38v89.74h-25.38V243.16z"></path>
		<path class="st1" d="M373.09,243.16v89.74h-20.9l-39.61-47.82v47.82h-24.87v-89.74h20.9l39.61,47.82v-47.82H373.09z"></path>
		<path class="st1" d="M391.03,243.16h25.38v89.74h-25.38V243.16z"></path>
		<path class="st1" d="M434.49,243.16h25.38v69.61h42.82v20.13h-68.2V243.16z"></path>
	</g>
	<g>
		<path class="st1" d="M615.68,267.43c0-9.57,7.33-16.36,17.3-16.36c5.8,0,10.47,2.11,13.53,5.93l-5.66,5.12
			c-1.98-2.38-4.4-3.68-7.42-3.68c-5.17,0-8.76,3.59-8.76,8.99c0,5.39,3.59,8.99,8.76,8.99c3.01,0,5.44-1.3,7.42-3.68l5.66,5.12
			c-3.06,3.82-7.73,5.93-13.53,5.93C623.01,283.79,615.68,277,615.68,267.43z"></path>
		<path class="st1" d="M648.17,267.43c0-9.44,7.42-16.36,17.48-16.36c10.07,0,17.48,6.92,17.48,16.36s-7.42,16.36-17.48,16.36
			C655.59,283.79,648.17,276.87,648.17,267.43z M674.15,267.43c0-5.44-3.73-8.99-8.49-8.99c-4.76,0-8.49,3.55-8.49,8.99
			s3.73,8.99,8.49,8.99C670.42,276.42,674.15,272.87,674.15,267.43z"></path>
		<path class="st1" d="M717.74,251.7v31.46h-7.32l-13.89-16.76v16.76h-8.72V251.7h7.33l13.89,16.76V251.7H717.74z"></path>
		<path class="st1" d="M722.41,267.43c0-9.57,7.33-16.36,17.3-16.36c5.8,0,10.47,2.11,13.53,5.93l-5.66,5.12
			c-1.98-2.38-4.4-3.68-7.42-3.68c-5.17,0-8.76,3.59-8.76,8.99c0,5.39,3.59,8.99,8.76,8.99c3.01,0,5.44-1.3,7.42-3.68l5.66,5.12
			c-3.06,3.82-7.73,5.93-13.53,5.93C729.74,283.79,722.41,277,722.41,267.43z"></path>
		<path class="st1" d="M782.45,276.28v6.88h-25.26V251.7h24.67v6.88H766v5.3h13.98v6.65H766v5.75H782.45z"></path>
		<path class="st1" d="M801.14,274.8h-4.85v8.36h-8.9V251.7h14.38c8.58,0,13.98,4.45,13.98,11.64c0,4.63-2.25,8.04-6.16,9.93
			l6.79,9.89h-9.53L801.14,274.8z M801.23,258.71h-4.94v9.21h4.94c3.68,0,5.53-1.71,5.53-4.58
			C806.76,260.42,804.92,258.71,801.23,258.71z"></path>
		<path class="st1" d="M826.89,258.76h-9.66v-7.05h28.18v7.05h-9.62v24.4h-8.9V258.76z"></path>
		<path class="st1" d="M638.37,318.24h-13.3l-2.47,6.11h-9.08l13.89-31.46h8.76l13.93,31.46h-9.26L638.37,318.24z M635.77,311.68
			l-4.04-10.07l-4.04,10.07H635.77z"></path>
		<path class="st1" d="M673.25,307.95h7.86v13.03c-3.64,2.61-8.63,4-13.21,4c-10.02,0-17.35-6.79-17.35-16.36
			s7.33-16.36,17.53-16.36c5.89,0,10.65,2.02,13.75,5.75l-5.66,5.12c-2.16-2.38-4.63-3.5-7.64-3.5c-5.39,0-8.99,3.55-8.99,8.99
			c0,5.3,3.59,8.99,8.9,8.99c1.66,0,3.23-0.31,4.81-1.03V307.95z"></path>
		<path class="st1" d="M712.03,317.48v6.87h-25.26V292.9h24.67v6.88h-15.86v5.3h13.98v6.65h-13.98v5.75H712.03z"></path>
		<path class="st1" d="M746.9,292.9v31.46h-7.32l-13.89-16.76v16.76h-8.72V292.9h7.33l13.89,16.76V292.9H746.9z"></path>
		<path class="st1" d="M751.58,308.63c0-9.57,7.33-16.36,17.3-16.36c5.8,0,10.47,2.11,13.53,5.93l-5.66,5.12
			c-1.98-2.38-4.4-3.68-7.42-3.68c-5.17,0-8.76,3.59-8.76,8.99c0,5.39,3.59,8.99,8.76,8.99c3.01,0,5.44-1.3,7.42-3.69l5.66,5.12
			c-3.06,3.82-7.73,5.93-13.53,5.93C758.9,324.98,751.58,318.2,751.58,308.63z"></path>
		<path class="st1" d="M803.08,313.07v11.28h-8.9v-11.41l-12-20.04h9.39l7.46,12.49l7.46-12.49h8.63L803.08,313.07z"></path>
	</g>
</g>
</svg><style>@media (prefers-color-scheme: light) { :root { filter: none; } }
@media (prefers-color-scheme: dark) { :root { filter: none; } }
</style></svg>